<?xml version="1.0" encoding="UTF-8" standalone="no"?>
<!-- Created with Inkscape (http://www.inkscape.org/) -->

<svg
   xmlns:dc="http://purl.org/dc/elements/1.1/"
   xmlns:cc="http://creativecommons.org/ns#"
   xmlns:rdf="http://www.w3.org/1999/02/22-rdf-syntax-ns#"
   xmlns:svg="http://www.w3.org/2000/svg"
   xmlns="http://www.w3.org/2000/svg"
   xmlns:xlink="http://www.w3.org/1999/xlink"
   xmlns:sodipodi="http://sodipodi.sourceforge.net/DTD/sodipodi-0.dtd"
   xmlns:inkscape="http://www.inkscape.org/namespaces/inkscape"
   width="407.81793"
   height="100.19855"
   id="svg3028"
   version="1.1"
   inkscape:version="0.48.0 r9654"
   sodipodi:docname="cover-icons.svg">
  <defs
     id="defs3030">
    <linearGradient
       inkscape:collect="always"
       xlink:href="#id2-6"
       id="linearGradient3039"
       gradientUnits="userSpaceOnUse"
       gradientTransform="matrix(0.71113939,0,0,0.71113939,533.3735,262.99945)"
       x1="106.266"
       y1="193.22501"
       x2="102.824"
       y2="104.889" />
    <linearGradient
       y2="104.889"
       x2="102.824"
       y1="193.22501"
       x1="106.266"
       gradientUnits="userSpaceOnUse"
       id="id2-6">
      <stop
         id="stop21-7"
         style="stop-color:#DEDEDD"
         offset="0" />
      <stop
         id="stop23-3"
         style="stop-color:white"
         offset="1" />
    </linearGradient>
    <linearGradient
       inkscape:collect="always"
       xlink:href="#id4-5"
       id="linearGradient3041"
       gradientUnits="userSpaceOnUse"
       gradientTransform="matrix(0.71113939,0,0,0.71113939,533.3735,262.99945)"
       x1="101.485"
       y1="129.314"
       x2="109.637"
       y2="188.41499" />
    <linearGradient
       y2="188.41499"
       x2="109.637"
       y1="129.314"
       x1="101.485"
       gradientUnits="userSpaceOnUse"
       id="id4-5">
      <stop
         id="stop31-6"
         style="stop-color:#DEDEDD"
         offset="0" />
      <stop
         id="stop33-3"
         style="stop-color:#EFEFEE"
         offset="0.121569" />
      <stop
         id="stop35-9"
         style="stop-color:white"
         offset="1" />
    </linearGradient>
    <linearGradient
       inkscape:collect="always"
       xlink:href="#id5-8"
       id="linearGradient3043"
       gradientUnits="userSpaceOnUse"
       gradientTransform="matrix(0.71113939,0,0,0.71113939,533.3735,262.99945)"
       x1="106.094"
       y1="130.39"
       x2="137.192"
       y2="106.696" />
    <linearGradient
       y2="106.696"
       x2="137.192"
       y1="130.39"
       x1="106.094"
       gradientUnits="userSpaceOnUse"
       id="id5-8">
      <stop
         id="stop38-1"
         style="stop-color:#DEDEDD"
         offset="0" />
      <stop
         id="stop40-2"
         style="stop-color:#C2C1C1"
         offset="1" />
    </linearGradient>
    <filter
       y="-0.25"
       x="-0.25"
       height="1.5"
       width="1.5"
       inkscape:label="Drop shadow"
       id="filter2886-9"
       color-interpolation-filters="sRGB">
      <feGaussianBlur
         result="blur"
         stdDeviation="2,000000"
         in="SourceAlpha"
         id="feGaussianBlur2888-3" />
      <feColorMatrix
         values="-1 0 0 0 1 0 -1 0 0 1 0 0 -1 0 1 0 0 0 0,500000 0 "
         type="matrix"
         result="bluralpha"
         id="feColorMatrix2890-9" />
      <feOffset
         result="offsetBlur"
         dy="1,000000"
         dx="1,000000"
         in="bluralpha"
         id="feOffset2892-0" />
      <feMerge
         id="feMerge2894-8">
        <feMergeNode
           in="offsetBlur"
           id="feMergeNode2896-8" />
        <feMergeNode
           in="SourceGraphic"
           id="feMergeNode2898-5" />
      </feMerge>
    </filter>
    <linearGradient
       inkscape:collect="always"
       xlink:href="#id6-9"
       id="linearGradient3045"
       gradientUnits="userSpaceOnUse"
       gradientTransform="matrix(0.71113939,0,0,0.71113939,533.3735,262.99945)"
       x1="131.526"
       y1="188.576"
       x2="79.310204"
       y2="145.062" />
    <linearGradient
       y2="145.062"
       x2="79.310204"
       y1="188.576"
       x1="131.526"
       gradientUnits="userSpaceOnUse"
       id="id6-9">
      <stop
         id="stop43-6"
         style="stop-color:#C2C1C1"
         offset="0" />
      <stop
         id="stop45-3"
         style="stop-color:#AAA9A9"
         offset="1" />
    </linearGradient>
    <linearGradient
       y2="145.062"
       x2="79.310204"
       y1="188.576"
       x1="131.526"
       gradientTransform="matrix(0.71113939,0,0,0.71113939,533.3735,262.99945)"
       gradientUnits="userSpaceOnUse"
       id="linearGradient3123"
       xlink:href="#id6-9"
       inkscape:collect="always" />
  </defs>
  <sodipodi:namedview
     id="base"
     pagecolor="#ffffff"
     bordercolor="#666666"
     borderopacity="1.0"
     inkscape:pageopacity="0.0"
     inkscape:pageshadow="2"
     inkscape:zoom="1.979899"
     inkscape:cx="172.73987"
     inkscape:cy="24.612012"
     inkscape:document-units="px"
     inkscape:current-layer="layer1"
     showgrid="false"
     inkscape:window-width="1680"
     inkscape:window-height="974"
     inkscape:window-x="0"
     inkscape:window-y="24"
     inkscape:window-maximized="1"
     showborder="false"
     inkscape:showpageshadow="false"
     fit-margin-top="0"
     fit-margin-left="0"
     fit-margin-right="0"
     fit-margin-bottom="0" />
  <metadata
     id="metadata3033">
    <rdf:RDF>
      <cc:Work
         rdf:about="">
        <dc:format>image/svg+xml</dc:format>
        <dc:type
           rdf:resource="http://purl.org/dc/dcmitype/StillImage" />
        <dc:title />
      </cc:Work>
    </rdf:RDF>
  </metadata>
  <g
     inkscape:label="Calque 1"
     inkscape:groupmode="layer"
     id="layer1"
     transform="translate(-67.525813,-507.77158)">
    <path
       style="fill:#4e9a06;fill-opacity:1;stroke:none;display:inline"
       d="m 122.72751,531.03995 c -11.97547,2.82637 -23.950927,5.65275 -35.926407,8.47912 0,16.7291 0,33.45819 0,50.18729 -8.14452,-2.89654 -18.57153,3.02089 -19.27529,11.94525 0.43429,4.96544 6.26148,7.10518 10.53843,6.05941 6.94108,-1.04905 13.53161,-7.31768 12.73299,-14.76282 -0.0582,-13.87562 -0.019,-27.75138 -0.0303,-41.62708 10.653507,-2.50172 21.307017,-5.00346 31.960527,-7.50519 0,12.47043 0,24.94087 0,37.41129 -8.15782,-2.90663 -18.58286,3.04806 -19.27973,11.97885 0.44449,5.05807 6.51445,7.27966 10.83417,5.92407 6.82598,-1.07247 13.22327,-7.2882 12.40753,-14.60792 0.0103,-17.82742 1e-5,-35.65485 0.004,-53.48227 -1.32135,0 -2.64596,0 -3.9653,0 z"
       id="path9049-7"
       inkscape:connector-curvature="0" />
    <g
       id="g11107"
       transform="matrix(1.2898855,0,0,1.2990447,-47.892033,167.32291)">
      <path
         style="fill:#eeeeec;fill-opacity:1;fill-rule:nonzero;stroke:none"
         id="path9053"
         d="m 222.8274,310.76715 c 0,15.29538 -12.40043,27.69485 -27.69475,27.69485 -15.29574,0 -27.69548,-12.3996 -27.69548,-27.69485 0,-15.29471 12.39974,-27.69293 27.69548,-27.69293 15.29432,0 27.69475,12.39822 27.69475,27.69293 l 0,0 z"
         inkscape:connector-curvature="0" />
      <path
         style="fill:#4e9a06;fill-opacity:1;fill-rule:nonzero;stroke:none"
         id="path9055"
         d="m 195.30544,283.90153 c -2.15447,0.1701 -4.27532,0.5151 -6.33232,1.19205 -1.73398,0.68852 1.25026,-0.60594 -0.52845,-0.85235 -1.07053,-0.18317 -1.51913,0.91977 -2.47556,0.94509 -1.09127,0.0336 -1.83938,1.00889 -2.86436,1.12622 -0.36915,2.03437 -0.84474,-0.80195 -1.18343,0.18572 0.26851,1.01659 -0.1098,1.68139 -0.89632,2.27217 -0.84801,0.96204 -0.0506,1.82319 0.76425,0.97819 0.3912,-1.17627 1.6669,-2.48351 2.91177,-1.69848 1.24574,0.68293 2.47849,2.32936 3.5155,0.57703 -1.06416,-0.12803 -1.47483,-1.03801 -1.98477,-1.70503 -0.56421,0.0446 -2.93128,-0.45135 -1.41806,-0.33866 0.74488,-0.24314 2.18361,-0.96639 2.7121,-0.93791 -1.32529,0.69108 0.49362,1.14559 1.03194,1.69642 0.96805,0.28696 1.40654,1.51629 0.52741,2.15253 -1.1303,0.58668 0.0788,1.55293 0.31157,2.36085 0.18084,1.40717 1.40437,0.6101 1.7926,-0.25439 0.56111,-1.57217 2.35887,-1.51778 3.65927,-2.18795 1.42106,-0.72955 1.44462,-0.75521 2.1193,0.28466 0.51827,0.29817 2.24805,-0.7869 1.11227,-1.30954 -0.9721,0.0521 -1.60988,0.64882 -0.79455,-0.85705 0.19616,-0.80918 0.95734,-1.86562 0.81891,-2.52838 -0.93302,-0.36707 -1.86604,-0.73413 -2.79907,-1.10119 z m -13.2134,5.20784 c 0.50204,0.51353 2.19407,1.44251 2.02542,0.15866 -0.20325,-0.87036 -1.46865,-0.87831 -2.02542,-0.15866 z m 25.60698,-0.62687 c -1.16176,0.23853 -2.31361,0.49996 -3.23102,1.30197 0.27429,1.10696 -1.17582,1.26562 -1.81167,1.87209 -0.16966,0.3558 -0.0348,2.59412 0.72044,1.63133 0.81991,-1.08887 1.17524,0.57607 2.04096,0.74267 0.62745,-0.2019 0.70512,-1.61227 0.46908,-2.26144 0.40211,-0.66228 1.0581,-1.57803 1.90866,-1.50245 -0.52751,0.80486 -1.13007,2.86362 0.55135,2.02206 0.4866,-0.008 -1.32455,1.06359 -1.43316,1.79448 -0.68029,0.7229 -1.40039,1.27692 -2.38318,0.71676 -0.4702,-0.39697 -0.70914,-1.54938 -1.00671,-0.24761 0.61096,1.03257 -1.5351,0.0667 -1.48218,1.45978 -0.45072,0.86711 -1.26342,1.22225 -2.2033,1.28482 0.34114,0.26983 1.68091,1.87682 0.35176,1.64945 -0.8508,0.0935 -2.09435,0.57372 -1.75005,1.64266 -0.38747,1.33122 0.59896,0.99592 1.2056,1.82924 0.98845,-0.28074 1.61945,-0.88674 1.781,-1.92001 0.92504,-0.27168 1.03696,-1.31369 2.05261,-1.29267 1.01245,-0.5692 1.2484,1.03943 2.19722,1.15845 0.0994,0.5761 -0.47175,1.80572 0.64367,0.66154 1.07759,-0.78076 -1.12088,-1.79246 -0.43649,-1.98276 0.97409,0.31111 1.32521,1.23583 1.48154,2.14122 0.79375,1.35804 0.9894,0.62593 1.05267,-0.56892 1.23661,-0.55597 1.61729,2.31319 3.36656,1.60654 1.30649,0.27025 0.84512,1.17052 -0.0268,1.72007 -0.70578,0.66411 -1.88649,0.24442 -2.71587,-0.0219 -0.79608,-0.39126 -1.86022,-0.34977 -2.28566,0.54054 -0.65591,-0.3068 -1.33419,-1.28463 -1.99869,-1.84915 -1.64189,-0.7244 -3.4275,-0.10683 -5.06351,0.33754 -1.40355,1.63962 -3.09418,3.12794 -3.69847,5.26621 -0.885,0.90008 0.766,1.4212 -0.34387,2.19328 -0.90615,0.72284 0.1524,1.63929 0.34651,2.47058 0.8521,1.04867 2.29863,4.33071 3.62413,3.02383 0.74297,-1.13114 1.15542,0.86806 2.02984,-0.42561 0.69807,-0.56312 1.3667,0.64562 2.38202,0.202 0.97794,0.60387 0.79076,1.47061 0.38746,2.38613 0.21967,0.76243 1.31238,1.31715 0.88778,2.35087 -0.38578,0.96289 0.82203,1.69289 0.57852,2.5355 -0.81029,1.62281 -0.61927,3.62936 0.13242,5.23765 0.60148,1.45544 0.95435,3.02845 0.90736,4.60823 1.04709,0.31323 1.60238,-1.02776 2.64688,-0.72329 1.01967,0.13141 1.3983,-1.16962 2.11568,-1.71376 0.79934,-0.65895 -0.10178,-1.67361 1.16715,-2.14056 1.2311,-0.59939 -1.55913,-1.43963 0.0213,-1.97679 0.65573,-0.72961 1.99217,-0.98358 2.25673,-1.93612 -0.47695,-1.46568 -0.30725,-3.07305 -0.23597,-4.57225 0.4589,-1.18642 1.02873,-2.29936 2.01047,-3.1394 0.39589,-1.30628 1.33815,-2.5058 1.25385,-3.90588 -2.32262,0.7104 -1.61865,-0.30297 -0.3237,-1.23086 0.89526,-0.59485 1.98072,-1.19203 2.39733,-2.20139 0.20348,-1.14247 -0.63756,-3.00197 -1.42084,-1.27563 -0.34553,-0.6635 -1.62708,-1.01133 -1.56906,-1.87584 -0.24894,-1.77967 0.48582,-0.20337 1.21307,0.15208 1.5712,-0.85311 2.37091,2.50428 3.36824,0.50044 -0.87129,-6.30323 -4.30166,-12.02285 -8.93697,-16.30643 -0.80476,-1.54322 -1.2985,1.05695 -2.11634,0.95844 -0.65457,-0.68305 -1.87415,-1.60591 -0.17123,-1.2882 1.45766,-0.42677 0.46895,-0.99052 -0.60016,-0.96442 -0.80809,-0.0982 -1.55188,-0.38137 -2.30494,-0.67507 z m -28.98265,0.62687 c -0.38762,1.90764 -2.83502,1.68467 -3.68836,3.56718 -4.19856,4.44466 -6.78995,10.29275 -7.49963,16.34801 0.37476,1.41965 1.56544,2.10148 2.76317,2.73078 1.01757,0.59106 2.50935,0.33013 3.07993,1.56801 0.63703,0.52132 1.32441,1.55014 2.23522,1.23653 1.32042,-0.12829 0.50776,1.20977 0.28158,1.88773 -0.0834,0.85562 -1.13873,1.40075 -0.73328,2.22407 -0.34025,0.9327 -0.61046,1.85737 0.14469,2.66503 0.64216,1.18389 1.16488,2.46376 2.35535,3.20696 0.83478,0.70096 1.77976,1.6285 1.45249,2.81561 -0.17392,0.9609 0.0608,1.84643 0.52514,2.68955 -0.16657,0.94648 -0.50853,1.9148 -0.57869,2.84501 1.23981,0.87688 3.76454,2.90471 3.95151,0.6976 0.70737,-0.63658 0.75013,-1.6611 1.93736,-1.66385 0.55104,-0.67349 0.7408,-1.73139 1.15184,-2.55386 -0.60015,-0.75892 0.23445,-1.9307 1.13423,-1.89965 1.15024,0.0865 1.10792,-1.26087 1.56631,-2.00622 -0.0116,-1.08856 -0.54827,-2.32184 0.43054,-3.13917 0.73647,-0.66735 0.66012,-1.64573 0.77506,-2.55091 -1.6508,-1.02109 -3.82308,-1.53795 -5.12937,-2.91609 -0.25889,-1.07841 -1.0711,-1.44185 -2.10397,-1.52014 -0.43612,-0.60974 -0.36225,-2.06195 -1.12429,-2.1329 -0.98157,0.18845 -1.9535,0.33957 -2.66674,-0.51367 -0.80931,-1.09336 -1.50792,0.2818 -2.24633,0.76998 -0.69322,1.20749 -2.63408,-0.0605 -2.40213,-1.41962 0.68214,-1.88031 -2.31543,0.20942 -1.08527,-2.0082 0.58504,-2.41775 -0.9963,-0.55897 -1.82592,-0.0154 -1.01247,0.0116 -1.39493,-0.99724 -1.21438,-1.92059 -0.12842,-1.10983 0.68064,-1.67421 1.50401,-2.23029 1.10183,0.16969 1.38137,-0.79059 2.20676,-0.66564 1.03757,-0.053 1.41663,0.9414 2.00621,1.60095 0.24691,-0.94155 -0.25862,-2.27678 0.78388,-2.8021 0.79526,-0.60305 1.60281,-1.19715 1.79324,-2.24186 0.18755,-1.09384 1.81759,-0.65915 2.09157,-1.76572 0.37891,-1.15673 2.1307,-0.22304 2.52328,-1.36456 1.23109,-1.15708 -0.38404,-0.80599 -1.26668,-0.84302 -1.74135,0.17894 0.17312,-0.46183 0.82607,-0.81975 0.96716,0.1279 1.86009,-0.18868 2.74877,-0.53045 0.11911,1.21006 0.34676,1.84832 0.96449,0.434 -1.20419,-0.2849 -0.16378,-1.46624 -1.35294,-1.77804 -0.94117,0.0662 0.009,-2.00008 -1.14992,-1.77292 -1.50791,0.99772 -0.16072,-0.70835 -1.38911,-0.93524 -0.96898,-1.04625 -1.2044,0.67176 -1.7305,1.29444 0.34126,1.19396 -1.115,0.93774 -1.38115,1.91794 -0.58947,1.76682 -0.34035,-0.12584 -1.04397,-0.57843 -0.86914,-0.34863 -1.91602,-0.53342 -1.92245,-1.67729 1.16525,-0.85297 2.91351,-1.35591 3.66444,-2.69906 0.43629,-1.04323 -0.36955,-1.61332 -1.36202,-1.53496 l -1e-5,0 z m 20.68811,2.3146 c -0.17607,0.92675 0.77182,1.42223 0.43402,2.41105 -0.30291,1.08316 -0.3909,1.94376 0.96266,1.31157 1.40503,-0.72148 0.50825,-1.27072 -0.0543,-2.21696 -0.38326,-0.62886 -0.34643,-1.7972 -1.34219,-1.50566 z m -1.06093,1.54307 c -1.1195,-0.33847 -0.87042,2.04292 -0.17148,1.42621 1.0257,-0.25254 0.33415,-0.74032 0.17148,-1.42621 z m 14.12964,12.68206 c 1.34182,1.19033 1.80015,2.95249 2.65839,4.45375 1.27475,0.56345 0.0583,1.5217 0.62761,2.21477 1.1968,1.30008 -1.65661,0.34559 -1.27729,-0.95712 -0.27785,-1.71112 -1.48851,-2.88119 -2.0691,-4.37606 -0.0605,-0.49702 -0.54348,-1.01192 0.0604,-1.33534 z"
         inkscape:connector-curvature="0" />
      <path
         d="m 222.8274,310.76715 c 0,15.29538 -12.40043,27.69485 -27.69475,27.69485 -15.29574,0 -27.69548,-12.3996 -27.69548,-27.69485 0,-15.29471 12.39974,-27.69293 27.69548,-27.69293 15.29432,0 27.69475,12.39822 27.69475,27.69293 l 0,0 z"
         id="path9057"
         style="fill:none;stroke:#73d216;stroke-width:1.49861562;stroke-miterlimit:4;stroke-opacity:1;stroke-dasharray:none"
         inkscape:connector-curvature="0" />
    </g>
    <g
       id="g12446"
       transform="matrix(1.5592577,0,0,1.5900549,-530.57098,-28.369484)">
      <path
         style="fill:url(#linearGradient3039);fill-rule:evenodd;stroke:#c7c7c7;stroke-width:0.09690936"
         id="path49"
         d="m 588.51503,337.8234 20.9496,0.4375 c 0.26341,0.006 1.11777,0.15374 1.84925,0.58178 4.32735,2.53201 15.41565,11.51143 18.38935,15.09948 0.48656,0.58705 0.59181,1.17814 0.58925,1.4151 l -0.45143,40.77509 c -0.0213,1.93096 -1.02617,2.63264 -3.10114,2.70255 l -39.00016,1.31461 c -2.07496,0.0699 -2.59552,-1.47903 -2.59552,-3.41041 l 0,-55.40416 c 0,-1.93139 1.29478,-3.55485 3.3708,-3.51154 z m 0.53933,4.58429 27.38676,0.33708 c 1.64494,3.24187 2.03265,6.33775 1.8799,9.22021 5.23719,-0.91936 8.37601,-0.76725 9.61247,0.51181 l -0.84064,43.05472 -38.03849,1.04495 0,-54.16877 z"
         class="fil0 str0"
         inkscape:connector-curvature="0" />
      <path
         style="fill:url(#linearGradient3041);fill-rule:evenodd"
         id="path51"
         d="m 589.05436,358.65481 c 0.27699,-2.17587 1.66051,-3.16834 3.96084,-3.18043 l 32.51165,-0.10247 c 1.14693,0.23076 1.96531,0.95612 2.30317,2.40414 l -0.73717,37.75532 -38.03849,1.04495 0,-37.92151 z"
         class="fil1"
         inkscape:connector-curvature="0" />
      <path
         style="fill:#73d216;fill-rule:evenodd"
         id="path53"
         d="m 589.05436,342.40741 27.38676,0.33708 c 1.64494,3.24187 2.03265,6.33774 1.8799,9.2202 5.23719,-0.91936 8.37601,-0.76724 9.61247,0.51181 l -0.84064,43.05473 0.73717,-37.75532 c -0.33786,-1.44802 -1.15624,-2.17338 -2.30317,-2.40415 l -32.51165,0.10248 c -2.30033,0.0121 -3.68385,1.00455 -3.96084,3.18043 l 0,-16.24726 z"
         class="fil2"
         inkscape:connector-curvature="0" />
      <path
         style="fill:url(#linearGradient3043);fill-opacity:0.4;fill-rule:evenodd;stroke:#ffffff;stroke-width:0.38763744;stroke-opacity:0.4"
         id="path55"
         d="m 609.4647,338.26075 c 0.26341,0.006 1.11777,0.15375 1.84925,0.58179 1.19635,0.69997 2.90941,1.89291 4.82494,3.3282 0.0105,0.008 0.0195,0.0171 0.0292,0.024 0.11093,0.0792 0.21718,0.42739 0.27314,0.54985 1.52405,3.33553 2.02177,5.48203 1.8799,9.22021 l 3.91767,-0.51963 c 2.32813,-0.30878 4.57433,-0.005 5.6948,1.03143 0.5692,0.52589 1.26064,0.85117 1.76974,1.46538 0.48621,0.58676 0.59181,1.17814 0.58925,1.41509 l -0.0109,0.98166 c -2.017,-2.9614 -8.23222,-1.24385 -13.15423,-1.23105 -1.28567,0.004 -1.31767,-0.0471 -1.30337,-1.27579 0.088,-7.54184 -1.43636,-12.83528 -6.35937,-15.57118 z"
         class="fil3 str1"
         inkscape:connector-curvature="0" />
      <path
         transform="matrix(0.71113939,0,0,0.71113939,533.3735,262.99945)"
         style="fill:#ffffff;fill-rule:nonzero;filter:url(#filter2886-9)"
         id="path61"
         d="m 85.6799,117.594 -0.3651,0 0,3.0004 0.4868,0 c 0.6773,0 1.1933,-0.1297 1.5504,-0.3916 0.3572,-0.2619 0.5345,-0.6377 0.5345,-1.1271 0,-0.5133 -0.1746,-0.8864 -0.5265,-1.1245 -0.3519,-0.2381 -0.9128,-0.3572 -1.6801,-0.3572 z m -3.048,9.1784 0,-11.2395 2.8919,0 c 0.889,0 1.5928,0.0635 2.1166,0.1931 0.5213,0.1297 0.9843,0.3466 1.3865,0.6509 0.418,0.3069 0.7434,0.6879 0.9736,1.143 0.2302,0.4577 0.344,0.9419 0.344,1.4552 0,1.1351 -0.4048,2.0373 -1.2118,2.7041 -0.8096,0.6667 -1.905,1.0001 -3.2914,1.0001 -0.1429,0 -0.2514,0 -0.3255,-0.003 -0.0714,-0.003 -0.1402,-0.008 -0.201,-0.0132 l 0,4.109 -2.6829,0 z m 12.0306,-2.4104 0.59,0 c 1.1721,0 2.0902,-0.2831 2.7517,-0.8519 0.6614,-0.5689 0.9922,-1.3547 0.9922,-2.3575 0,-1.0027 -0.3308,-1.7912 -0.9922,-2.3653 -0.6615,-0.5742 -1.5796,-0.8599 -2.7517,-0.8599 l -0.59,0 0,6.4346 z m -2.6511,2.4104 0,-11.2395 2.9845,0 c 2.0981,0 3.7412,0.5001 4.9292,1.5028 1.1879,1.0028 1.7833,2.376 1.7833,4.1169 0,1.0452 -0.2355,1.9712 -0.7065,2.7782 -0.4683,0.8096 -1.1589,1.4737 -2.069,1.9976 -0.516,0.299 -1.0769,0.5133 -1.6854,0.6456 -0.6059,0.1323 -1.3573,0.1984 -2.2516,0.1984 l -2.9845,0 z m 11.5729,0 0,-11.2395 6.985,0 0,2.286 -4.318,0 0,2.241 3.8602,0 0,2.2701 -3.8602,0 0,4.4424 -2.667,0 z"
         class="fil4"
         inkscape:connector-curvature="0" />
      <path
         style="fill:#4e9a06;fill-rule:evenodd"
         id="path63"
         d="m 589.04562,380.70297 c 11.39288,4.95985 23.74053,-6.76258 32.8215,-25.29729 l 3.73661,-0.015 c -2.35295,2.41275 -4.1665,5.18627 -5.44036,8.32026 2.3533,-1.99503 4.83646,-3.76861 7.63956,-4.99703 l -0.041,2.09892 c -16.06392,8.64248 -14.00852,21.43083 -8.79459,34.94198 l -12.19461,0.33502 c -0.61827,-7.42074 0.83075,-14.48193 4.34733,-21.18357 -5.48615,5.83156 -11.25861,9.08445 -17.37377,9.25307 4.26058,3.28304 7.01411,7.25867 7.94897,12.06995 l -2.13413,0.0586 c -1.65126,-6.33547 -5.26876,-10.11475 -10.51554,-11.7759 l 0,-3.80901 z"
         class="fil5"
         inkscape:connector-curvature="0" />
      <path
         style="fill:url(#linearGradient3123);fill-opacity:0.50196078;fill-rule:evenodd"
         id="path65"
         d="m 627.63574,367.28591 -0.25146,12.87674 c -5.93844,4.79785 -10.79474,10.06639 -14.66569,15.76333 l -1.80089,0.0494 c 3.17766,-4.68349 6.68969,-9.22369 11.12656,-13.3675 l -0.14806,-0.98279 c -11.29296,5.35801 -22.27679,6.08109 -32.85044,0.65254 l 0,-3.52263 c 8.97003,4.40587 21.70966,0.84412 38.58998,-11.46911 z"
         class="fil6"
         inkscape:connector-curvature="0" />
    </g>
    <g
       id="g3860"
       transform="translate(7.1287537,4.7747966)">
      <path
         sodipodi:nodetypes="cccccc"
         inkscape:connector-curvature="0"
         id="path3029"
         d="m 285.11367,550.47575 c 5.95286,0.15182 12.8223,0.80536 16.06926,-5.46638 6.52639,-15.16434 -18.078,-15.74283 -24.19244,-10.7729 -3.56359,3.04002 -5.38447,11.09945 0.30856,13.08313 4.3328,1.75059 -8.45155,11.31773 -2.3113,8.03413 2.30597,-0.87239 7.64326,-2.37149 10.12592,-4.87798 z"
         style="fill:#eeeeec;stroke:#73d216;stroke-width:2;stroke-linecap:butt;stroke-linejoin:miter;stroke-miterlimit:4;stroke-opacity:1;stroke-dasharray:none" />
      <path
         sodipodi:nodetypes="cccccc"
         inkscape:connector-curvature="0"
         id="path3029-9"
         d="m 315.09867,593.56082 c -9.209,0.23583 -19.83598,1.25096 -24.85898,-8.49096 -10.09627,-23.55485 27.96649,-24.45343 37.42548,-16.73361 5.51284,4.72208 8.32972,17.24084 -0.47734,20.32209 -6.7028,2.71921 13.07447,17.57991 3.57556,12.47946 -3.56731,-1.35507 -11.82405,-3.68364 -15.66472,-7.57698 z"
         style="fill:#eeeeec;stroke:#73d216;stroke-width:2;stroke-linecap:butt;stroke-linejoin:miter;stroke-miterlimit:4;stroke-opacity:1;stroke-dasharray:none" />
    </g>
  </g>
</svg>
