<?xml version="1.0" encoding="UTF-8" standalone="no"?>
<!-- Created with Inkscape (http://www.inkscape.org/) -->

<svg
   xmlns:i="http://ns.adobe.com/AdobeIllustrator/10.0/"
   xmlns:dc="http://purl.org/dc/elements/1.1/"
   xmlns:cc="http://creativecommons.org/ns#"
   xmlns:rdf="http://www.w3.org/1999/02/22-rdf-syntax-ns#"
   xmlns:svg="http://www.w3.org/2000/svg"
   xmlns="http://www.w3.org/2000/svg"
   xmlns:xlink="http://www.w3.org/1999/xlink"
   xmlns:sodipodi="http://sodipodi.sourceforge.net/DTD/sodipodi-0.dtd"
   xmlns:inkscape="http://www.inkscape.org/namespaces/inkscape"
   width="654.05945"
   height="66.156853"
   id="svg12047"
   version="1.1"
   inkscape:version="0.48.0 r9654"
   sodipodi:docname="Nouveau document 2">
  <defs
     id="defs12049" />
  <sodipodi:namedview
     id="base"
     pagecolor="#ffffff"
     bordercolor="#666666"
     borderopacity="1.0"
     inkscape:pageopacity="0.0"
     inkscape:pageshadow="2"
     inkscape:zoom="0.12374369"
     inkscape:cx="2069.0892"
     inkscape:cy="105.1205"
     inkscape:document-units="px"
     inkscape:current-layer="layer1"
     showgrid="false"
     fit-margin-top="0"
     fit-margin-left="0"
     fit-margin-right="0"
     fit-margin-bottom="0"
     showborder="false"
     inkscape:showpageshadow="false"
     inkscape:window-width="1680"
     inkscape:window-height="974"
     inkscape:window-x="0"
     inkscape:window-y="24"
     inkscape:window-maximized="1" />
  <metadata
     id="metadata12052">
    <rdf:RDF>
      <cc:Work
         rdf:about="">
        <dc:format>image/svg+xml</dc:format>
        <dc:type
           rdf:resource="http://purl.org/dc/dcmitype/StillImage" />
        <dc:title></dc:title>
      </cc:Work>
    </rdf:RDF>
  </metadata>
  <g
     inkscape:label="Calque 1"
     inkscape:groupmode="layer"
     id="layer1"
     transform="translate(-2848.8899,-1124.3396)">
    <g
       transform="translate(2873.3672,365.58015)"
       style="display:inline"
       id="g12219">
      <g
         inkscape:tile-y0="-233.90945"
         inkscape:tile-x0="-20.598391"
         inkscape:tile-h="66.156854"
         inkscape:tile-w="102.19678"
         inkscape:tile-cy="-200.83103"
         inkscape:tile-cx="30.500002"
         style="fill:#cde2b2;fill-opacity:1"
         id="g14096">
        <circle
           i:knockout="Off"
           cx="74.547997"
           cy="84.667"
           r="9.1239996"
           id="circle7273-0"
           sodipodi:cx="74.547997"
           sodipodi:cy="84.667"
           sodipodi:rx="9.1239996"
           sodipodi:ry="9.1239996"
           style="fill:#cde2b2;fill-opacity:1"
           d="m 83.671996,84.667 c 0,5.039046 -4.084954,9.123999 -9.123999,9.123999 -5.039046,0 -9.124,-4.084953 -9.124,-9.123999 0,-5.039046 4.084954,-9.124 9.124,-9.124 5.039045,0 9.123999,4.084954 9.123999,9.124 z"
           transform="matrix(0.77534614,-0.44764623,-0.44764623,-0.77534614,-16.33889,897.37222)" />
        <circle
           d="m 83.671996,84.667 c 0,5.039046 -4.084954,9.123999 -9.123999,9.123999 -5.039046,0 -9.124,-4.084953 -9.124,-9.123999 0,-5.039046 4.084954,-9.124 9.124,-9.124 5.039045,0 9.123999,4.084954 9.123999,9.124 z"
           style="fill:#cde2b2;fill-opacity:1"
           sodipodi:ry="9.1239996"
           sodipodi:rx="9.1239996"
           sodipodi:cy="84.667"
           sodipodi:cx="74.547997"
           id="circle7375-4"
           r="9.1239996"
           cy="84.667"
           cx="74.547997"
           i:knockout="Off"
           transform="matrix(0.77534614,0.44764623,-0.44764623,0.77534614,29.807783,717.1529)" />
        <path
           inkscape:connector-curvature="0"
           style="fill:#cde2b2;fill-opacity:1"
           id="path7409-1"
           d="m -6.553372,788.47472 c 8.80871,-5.0857 19.893464,-2.7644 25.999688,5.0168 l 12.120209,-6.9976 c -4.397569,-6.3455 -10.745769,-10.9611 -18.192289,-13.1923 -2.088166,3.2142 -5.708751,5.3428 -9.828094,5.3434 -4.12301,-4e-4 -7.745346,-2.1311 -9.833399,-5.3502 -2.490454,0.7556 -4.911439,1.7998 -7.221191,3.1333 -4.422579,2.5534 -8.138961,5.9861 -10.968883,10.0608 l 12.135702,7.0065 c 1.546889,-1.9744 3.487032,-3.6921 5.788257,-5.0207 z"
           i:knockout="Off" />
        <path
           inkscape:connector-curvature="0"
           i:knockout="Off"
           d="m 19.454118,824.91602 c -6.104911,-7.7861 -17.193453,-10.1103 -26.004489,-5.0233 -2.302778,1.3295 -4.243695,3.0476 -5.789687,5.0236 l -12.136928,-7.0068 c 2.828696,-4.075 6.546186,-7.5094 10.970312,-10.0637 2.311307,-1.3344 4.736286,-2.3788 7.227513,-3.1348 2.087191,3.2247 5.713436,5.3604 9.839221,5.3602 4.121011,5e-4 7.74315,-2.129 9.830302,-5.3468 7.443088,2.2343 13.787741,6.8508 18.182417,13.1949 l -12.118661,6.9967 z"
           id="path7327-0"
           style="fill:#cde2b2;fill-opacity:1" />
        <path
           inkscape:connector-curvature="0"
           style="fill:#cde2b2;fill-opacity:1"
           id="path7427-4"
           d="m 65.600792,789.60902 c -6.10491,7.7861 -17.193458,10.1104 -26.00449,5.0233 -2.302779,-1.3295 -4.243696,-3.0476 -5.789691,-5.0236 l -12.136926,7.0069 c 2.828697,4.0749 6.54619,7.5094 10.97031,10.0636 2.311306,1.3345 4.736288,2.3789 7.227517,3.1349 2.08719,-3.2248 5.713433,-5.3604 9.839216,-5.3603 4.121012,-5e-4 7.743151,2.129 9.830302,5.3468 7.443088,-2.2342 13.787747,-6.8508 18.182424,-13.1949 l -12.118662,-6.9967 z"
           i:knockout="Off" />
        <circle
           d="m 83.664001,9.1260004 c 0,5.0390456 -4.084954,9.1239996 -9.124,9.1239996 -5.039046,0 -9.124,-4.084954 -9.124,-9.1239996 0,-5.0390458 4.084954,-9.12399959 9.124,-9.12399959 5.039046,0 9.124,4.08495379 9.124,9.12399959 z"
           style="fill:#cde2b2;fill-opacity:1"
           sodipodi:ry="9.1239996"
           sodipodi:rx="9.1239996"
           sodipodi:cy="9.1260004"
           sodipodi:cx="74.540001"
           id="circle7429-8"
           r="9.1239996"
           cy="9.1260004"
           cx="74.540001"
           i:knockout="Off"
           transform="matrix(0.77534614,-0.44764623,0.44764623,0.77534614,-58.334239,793.22122)" />
      </g>
      <use
         height="66.168983"
         width="748.2771"
         id="use14188"
         xlink:href="#g14096"
         inkscape:tiled-clone-of="#g14096"
         y="0"
         x="0" />
      <use
         height="66.168983"
         width="748.2771"
         id="use14190"
         transform="translate(91.977106,0)"
         xlink:href="#g14096"
         inkscape:tiled-clone-of="#g14096"
         y="0"
         x="0" />
      <use
         height="66.168983"
         width="748.2771"
         id="use14192"
         transform="translate(183.95421,0)"
         xlink:href="#g14096"
         inkscape:tiled-clone-of="#g14096"
         y="0"
         x="0" />
      <use
         height="66.168983"
         width="748.2771"
         id="use14194"
         transform="translate(275.93132,0)"
         xlink:href="#g14096"
         inkscape:tiled-clone-of="#g14096"
         y="0"
         x="0" />
      <use
         height="66.168983"
         width="748.2771"
         id="use14196"
         transform="translate(367.90843,0)"
         xlink:href="#g14096"
         inkscape:tiled-clone-of="#g14096"
         y="0"
         x="0" />
      <use
         height="66.168983"
         width="748.2771"
         id="use14198"
         transform="translate(459.88553,0)"
         xlink:href="#g14096"
         inkscape:tiled-clone-of="#g14096"
         y="0"
         x="0" />
      <use
         height="66.168983"
         width="748.2771"
         id="use14200"
         transform="translate(551.86264,0)"
         xlink:href="#g14096"
         inkscape:tiled-clone-of="#g14096"
         y="0"
         x="0" />
    </g>
  </g>
</svg>
